<svg viewBox="0 0 256 256" xmlns="http://www.w3.org/2000/svg"><path d="m128 251.39398243c19.81008423-6.07827226 23.16224168-34.79189926 40.75822205-45.73567856 15.73492742-9.78630171 40.95461423 1.08836458 53.27788884-12.7498631 11.94828619-13.41714033 7.09921514-35.00421904 5.15341497-52.86465183-1.7013327-15.61647428-8.91046182-29.53891897-15.67542434-43.71650989-6.31442962-13.23339189-13.29529946-25.69948257-22.78183374-36.87983811-10.55989003-12.445359-20.90355905-25.78125752-35.88400813-32.26079328-15.92168501-6.88665118-33.93372053-8.38519065-51.0085421-5.32308577-17.56980954 3.1508733-34.8482341 10.39894581-47.50160503 22.9893554-12.42467202 12.36284866-15.80451844 30.47979268-22.51001072 46.67389268-6.89678804 16.65608886-22.46188965 32.92164082-17.64089838 50.29256551 4.97778299 17.93587426 31.86949131 20.15778957 41.59743862 36.02728705 10.56293607 17.23164013 1.64993047 43.20224645 15.81043758 57.62393424 13.88937751 14.1455574 37.45245732 21.73851644 56.40492038 15.92338566" fill="#15c8cb"/></svg>